
<?xml version="1.0" encoding="UTF-8" standalone="no"?>
<!-- Created with Inkscape (http://www.inkscape.org/) -->

<svg
   xmlns:dc="http://purl.org/dc/elements/1.1/"
   xmlns:cc="http://creativecommons.org/ns#"
   xmlns:rdf="http://www.w3.org/1999/02/22-rdf-syntax-ns#"
   xmlns:svg="http://www.w3.org/2000/svg"
   xmlns="http://www.w3.org/2000/svg"
   xmlns:sodipodi="http://sodipodi.sourceforge.net/DTD/sodipodi-0.dtd"
   xmlns:inkscape="http://www.inkscape.org/namespaces/inkscape"
   width="118"
   height="25.10001"
   viewBox="0 0 31.220832 6.6410444"
   version="1.1"
   id="svg9768"
   inkscape:version="0.92.0 r15299"
   sodipodi:docname="humana.svg">
  <defs
     id="defs9762" />
  <sodipodi:namedview
     id="base"
     pagecolor="#ffffff"
     bordercolor="#666666"
     borderopacity="1.0"
     inkscape:pageopacity="0.0"
     inkscape:pageshadow="2"
     inkscape:zoom="7.6666667"
     inkscape:cx="58.5"
     inkscape:cy="12.050003"
     inkscape:document-units="mm"
     inkscape:current-layer="layer1"
     showgrid="false"
     fit-margin-top="0"
     fit-margin-left="0"
     fit-margin-right="0"
     fit-margin-bottom="0"
     units="px"
     inkscape:window-width="1280"
     inkscape:window-height="744"
     inkscape:window-x="-4"
     inkscape:window-y="-4"
     inkscape:window-maximized="1" />
  <metadata
     id="metadata9765">
    <rdf:RDF>
      <cc:Work
         rdf:about="">
        <dc:format>image/svg+xml</dc:format>
        <dc:type
           rdf:resource="http://purl.org/dc/dcmitype/StillImage" />
        <dc:title></dc:title>
      </cc:Work>
    </rdf:RDF>
  </metadata>
  <g
     inkscape:label="Layer 1"
     inkscape:groupmode="layer"
     id="layer1"
     transform="translate(-52.557589,-193.00552)">
    <path
       style="fill:#4e8416;stroke-width:0.26458332"
       inkscape:connector-curvature="0"
       class="st0"
       d="m 61.341751,194.64593 c -0.10583,0 -0.1852,0.0794 -0.1852,0.18521 v 3.62479 c -0.26459,0.0529 -0.55563,0.10584 -0.84667,0.10584 -0.635,0 -0.84667,-0.23813 -0.84667,-0.92604 v -2.80459 c 0,-0.10583 -0.0794,-0.18521 -0.15875,-0.18521 h -0.9525 v 2.9898 c 0,1.40229 0.74084,1.85208 1.93146,1.85208 0.9525,0 1.905,-0.26458 1.98438,-0.29104 v -4.55084 z m 14.57855,4.78896 c 0.0794,0 0.1852,-0.0794 0.1852,-0.18521 v -3.65125 c 0.26459,-0.0529 0.55563,-0.10583 0.84667,-0.10583 0.635,0 0.84667,0.23813 0.84667,0.92604 v 2.83104 c 0,0.10584 0.0794,0.18521 0.15875,0.18521 h 0.9525 v -3.01625 c 0,-1.40229 -0.74084,-1.85208 -1.93146,-1.85208 -0.9525,0 -1.905,0.26458 -1.98438,0.29104 v 4.57729 z m -3.81,-4.86833 c -1.24355,0 -2.01084,0.66146 -2.01084,2.11667 v 0.71437 c 0,1.5875 0.84667,2.11667 1.74625,2.11667 0.44979,0 0.92604,-0.3175 1.05834,-0.50271 v 0.29104 c 0,0.0794 0.0794,0.15875 0.15875,0.15875 0,0 0.92604,0 0.9525,0 v -4.63021 c 0.0265,0 -0.89959,-0.26458 -1.905,-0.26458 z m 0.8202,3.70417 c -0.21166,0.1852 -0.37041,0.29104 -0.8202,0.29104 -0.635,0.0265 -0.89959,-0.37042 -0.89959,-1.19063 v -0.66146 c 0,-0.92604 0.34396,-1.19062 0.89959,-1.19062 0.44979,0 0.71437,0.0265 0.8202,0.0529 z m 8.784169,-3.70417 c -1.243539,0 -2.010828,0.66146 -2.010828,2.11667 v 0.71437 c 0,1.5875 0.846659,2.11667 1.772708,2.11667 0.449792,0 0.926042,-0.3175 1.058331,-0.50271 v 0.29104 c 0,0.0794 0.0794,0.15875 0.15875,0.15875 0,0 0.926039,0 0.9525,0 v -4.63021 c 0,0 -0.926039,-0.26458 -1.931461,-0.26458 z m 0.820211,3.70417 c -0.211669,0.1852 -0.370419,0.29104 -0.820211,0.29104 -0.635,0 -0.899578,-0.37042 -0.899578,-1.19063 v -0.66146 c 0,-0.9525 0.343958,-1.19062 0.899578,-1.19062 0.449792,0 0.71438,0.0265 0.820211,0.0529 z m -29.845,1.16416 c 0.15875,0 1.00542,0 1.00542,0 0.0794,0 0.15875,-0.0794 0.15875,-0.15875 v -2.64583 h 1.85208 c 0.3175,0 0.52917,0.23812 0.52917,0.50271 v 2.14312 c 0,0.0794 0.0794,0.15875 0.15875,0.15875 0,0 0.9525,0 1.00541,0 0,0 0,-6.24416 0,-6.29708 h -1.00541 c -0.0794,0 -0.15875,0.0794 -0.15875,0.15875 v 2.38125 h -1.905 c -0.26459,0 -0.4498,-0.21167 -0.4498,-0.44979 v -1.93146 c -0.0265,-0.0529 -0.0794,-0.15875 -0.1852,-0.15875 h -1.00542 c 0,0.0529 0,6.29708 0,6.29708 z m 14.89604,-4.86833 c -0.52917,0 -1.03187,0.21167 -1.27,0.37042 -0.34396,-0.26459 -0.82021,-0.37042 -1.40229,-0.37042 -0.87313,0 -1.61396,0.26458 -1.71979,0.3175 v 4.57729 h 0.9525 c 0.10583,0 0.15875,-0.0794 0.15875,-0.18521 v -3.67771 c 0.23812,-0.0529 0.42333,-0.0794 0.58208,-0.0794 0.66146,0 0.82021,0.26458 0.82021,0.92604 v 2.83104 c 0,0.0794 0.0529,0.18521 0.15875,0.18521 h 0.79375 c 0.10583,0 0.15875,-0.0794 0.15875,-0.18521 v -3.54541 c 0.18521,-0.1323 0.42333,-0.21167 0.66146,-0.21167 0.50271,0 0.71437,0.23812 0.71437,0.84667 v 2.91041 c 0,0.0794 0.0529,0.18521 0.15875,0.18521 0,0 0.87313,0 0.9525,0 v -3.25437 c 0.0265,-1.21709 -0.74083,-1.64042 -1.71979,-1.64042 z"
       id="path9738" />
  </g>
</svg>
